# xmcd
#
# Track frame offsets:
#       150
#       21260
#       33917
#       54675
#       71940
#       92392
#       112385
#       125820
#       138475
#       160990
#       177575
#       195385
#       207607
#       218635
#       231102
#
# Disc length: 3275 seconds
#
# Revision: 1
# Processed by: cddbd v1.4PL0 Copyright (c) Steve Scherf et al.
# Submitted via: MusiCat 1.1
#
DISCID=e80cc90f
DTITLE=Tom Shaka - Hit from the Heart
DYEAR=1990
DGENRE=
TTITLE0=Chicken Man BLues
TTITLE1=I Been to Mardi Gras
TTITLE2=Deep Night Blues
TTITLE3=Rock'n'Roll Water
TTITLE4=Please, send me someone to love
TTITLE5=Leavin' Texas Blues
TTITLE6=Whatcha gonna do
TTITLE7=Crosscut Boogie
TTITLE8=Stone Sober
TTITLE9=Goin'away baby
TTITLE10=Goin' back to Germany
TTITLE11=Wrist Twister Rag
TTITLE12=Blues Shaker
TTITLE13=Rock a while Baby
TTITLE14=Barrelhousin'
EXTD=1990\n\n\nsubmitted by Stamppot
EXTT0=
EXTT1=
EXTT2=
EXTT3=
EXTT4=
EXTT5=
EXTT6=
EXTT7=
EXTT8=
EXTT9=
EXTT10=
EXTT11=
EXTT12=
EXTT13=
EXTT14=
PLAYORDER=
